<?xml version="1.0" standalone="yes"?>

<svg version="1.1" viewBox="0.0 0.0 1488.0 266.0" fill="none" stroke="none" stroke-linecap="square" stroke-miterlimit="10" xmlns="http://www.w3.org/2000/svg" xmlns:xlink="http://www.w3.org/1999/xlink"><clipPath id="p.0"><path d="m0 0l1488.0 0l0 266.0l-1488.0 0l0 -266.0z" clip-rule="nonzero"></path></clipPath><g clip-path="url(#p.0)"><path fill="#000000" fill-opacity="0.0" d="m0 0l1488.0 0l0 266.0l-1488.0 0z" fill-rule="evenodd"></path><path fill="#880e4f" d="m476.1331 102.06201l292.28348 0l0 106.67717l-292.28348 0z" fill-rule="evenodd"></path><path fill="#880e4f" d="m1159.8009 95.38121l0 59.08661l-1066.0472 0l0 -59.08661z" fill-rule="evenodd"></path><path fill="#880e4f" d="m907.0282 120.645035l0 0c0 -15.107681 12.247192 -27.354881 27.354858 -27.354881l237.57373 0c7.254883 0 14.212769 2.8820267 19.342773 8.012062c5.130005 5.1300354 8.012085 12.0878525 8.012085 19.34282l0 109.41623c0 15.107681 -12.247192 27.354874 -27.354858 27.354874l-237.57373 0c-15.107666 0 -27.354858 -12.247192 -27.354858 -27.354874z" fill-rule="evenodd"></path><path fill="#880e4f" d="m476.1331 159.17154l0 0c0 -2.9745636 2.4113464 -5.3859253 5.3859253 -5.3859253l21.54309 0l0 0c1.4284363 0 2.7983704 0.56744385 3.8084412 1.5774994c1.0100403 1.0100555 1.5774841 2.3799896 1.5774841 3.808426l0 26.298996c0 2.9745789 -2.4113464 5.3859406 -5.3859253 5.3859406l-21.54309 0c-2.9745789 0 -5.3859253 -2.4113617 -5.3859253 -5.3859406z" fill-rule="evenodd"></path><path fill="#880e4f" d="m739.1522 110.528206l0 0c0 -20.763733 16.832336 -37.59606 37.59607 -37.59606l92.744934 0l0 0c9.971069 0 19.533752 3.9610062 26.584412 11.011635c7.050598 7.0506287 11.011597 16.613327 11.011597 26.584427l0 109.31182c0 20.763733 -16.832275 37.59607 -37.59601 37.59607l-92.744934 0c-20.763733 0 -37.59607 -16.832336 -37.59607 -37.59607z" fill-rule="evenodd"></path><path fill="#880e4f" d="m322.80368 114.6437l0 0c0 -22.749763 18.442322 -41.192085 41.192078 -41.192085l103.22217 0l0 0c10.924805 0 21.40216 4.3398666 29.127197 12.06488c7.725006 7.7250137 12.06488 18.202385 12.06488 29.127205l0 101.61584c0 22.749756 -18.442322 41.192093 -41.192078 41.192093l-103.22217 0c-22.749756 0 -41.192078 -18.442337 -41.192078 -41.192093z" fill-rule="evenodd"></path><path fill="#880e4f" d="m111.53028 155.90295l0 -61.952766l1011.77954 0l0 61.952766z" fill-rule="evenodd"></path><path fill="#880e4f" d="m502.07376 81.980156l230.67715 0l0 89.73229l-230.67715 0z" fill-rule="evenodd"></path><path fill="#880e4f" d="m11.998688 120.660576l0 0c0 -15.107681 12.247196 -27.354881 27.354877 -27.354881l1409.2903 0c7.255005 0 14.212769 2.8820267 19.342773 8.012062c5.130127 5.1300354 8.012085 12.0878525 8.012085 19.34282l0 109.41622c0 15.107681 -12.247192 27.354874 -27.354858 27.354874l-1409.2903 0c-15.107681 0 -27.354877 -12.247192 -27.354877 -27.354874z" fill-rule="evenodd"></path><path fill="#880e4f" d="m754.26556 239.42514l-273.70078 0l0 -224.81891l273.70078 0z" fill-rule="evenodd"></path><path fill="#880e4f" d="m11.993439 31.98206l0 0c0 -13.503717 10.946924 -24.450642 24.450642 -24.450642l1415.0988 0c6.484619 0 12.703735 2.5760417 17.289185 7.161427c4.585327 4.5853834 7.161377 10.8045 7.161377 17.289215l0 183.91762c0 13.503723 -10.946899 24.450638 -24.450562 24.450638l-1415.0988 0l0 0c-13.503717 0 -24.450642 -10.946915 -24.450642 -24.450638z" fill-rule="evenodd"></path><path fill="#880e4f" d="m909.81635 102.06287l277.3543 0l0 137.35432l-277.3543 0z" fill-rule="evenodd"></path><path fill="#880e4f" d="m65.87727 141.58669l222.39369 0l0 116.88188l-222.39369 0z" fill-rule="evenodd"></path><path fill="#9900ff" d="m143.5453 106.983826l64.25197 0l0 98.36221l-64.25197 0z" fill-rule="evenodd"></path><defs><radialGradient id="p.1" gradientUnits="userSpaceOnUse" gradientTransform="matrix(8.292730707489678 0.0 0.0 8.292730707489678 0.0 0.0)" spreadMethod="pad" cx="32.432713581258476" cy="20.358362973525637" fx="32.432713581258476" fy="20.358362973525637" r="8.292730331420898"><stop offset="0.0" stop-color="#db0000"></stop><stop offset="1.0" stop-color="#540303"></stop></radialGradient></defs><path fill="url(#p.1)" d="m238.87701 106.9839l60.15747 0l0 123.68504l-60.15747 0z" fill-rule="evenodd"></path><path fill="#d9d9d9" d="m46.69029 114.76696l0 0c0 -4.2932434 3.480362 -7.7736053 7.7736053 -7.7736053l240.26382 0c2.061676 0 4.03891 0.8190079 5.496765 2.2768402c1.4578247 1.4578323 2.276825 3.4350815 2.276825 5.496765l0 108.137825c0 4.2932434 -3.4803467 7.7736053 -7.77359 7.7736053l-240.26382 0c-4.2932434 0 -7.7736053 -3.480362 -7.7736053 -7.7736053z" fill-rule="evenodd"></path><path fill="#b7b7b7" d="m238.26247 112.628136l0 0c0 -3.3540802 2.7190247 -6.073097 6.0730896 -6.073097l52.10579 0c1.6106873 0 3.1553955 0.6398468 4.2943115 1.7787704c1.1389465 1.1389236 1.7787781 2.6836395 1.7787781 4.294327l0 130.62546c0 3.3540802 -2.7190247 6.0730896 -6.0730896 6.0730896l-52.10579 0c-3.354065 0 -6.0730896 -2.7190094 -6.0730896 -6.0730896z" fill-rule="evenodd"></path><path fill="#9900ff" d="m143.5453 155.86111l0 0c0 -0.65231323 0.5288086 -1.1811218 1.1811218 -1.1811218l4.724365 0l0 0c0.31324768 0 0.613678 0.124435425 0.83517456 0.34594727c0.22151184 0.22149658 0.34594727 0.5219269 0.34594727 0.83517456l0 31.842484c0 0.65231323 -0.5288086 1.1811218 -1.1811218 1.1811218l-4.724365 0c-0.65231323 0 -1.1811218 -0.5288086 -1.1811218 -1.1811218z" fill-rule="evenodd"></path><path fill="#b7b7b7" d="m46.694225 111.638756l0 0c0 -4.596428 3.7261353 -8.322563 8.322559 -8.322563l47.60685 0c2.207283 0 4.3241577 0.8768387 5.884941 2.437622c1.5607834 1.5607834 2.437622 3.677658 2.437622 5.884941l0 130.28403c0 4.5964203 -3.726143 8.322556 -8.322563 8.322556l-47.60685 0l0 0c-4.596424 0 -8.322559 -3.7261353 -8.322559 -8.322556z" fill-rule="evenodd"></path><path stroke="#b7b7b7" stroke-width="1.0" stroke-linejoin="round" stroke-linecap="butt" d="m46.694225 111.638756l0 0c0 -4.596428 3.7261353 -8.322563 8.322559 -8.322563l47.60685 0c2.207283 0 4.3241577 0.8768387 5.884941 2.437622c1.5607834 1.5607834 2.437622 3.677658 2.437622 5.884941l0 130.28403c0 4.5964203 -3.726143 8.322556 -8.322563 8.322556l-47.60685 0l0 0c-4.596424 0 -8.322559 -3.7261353 -8.322559 -8.322556z" fill-rule="evenodd"></path><path fill="#000000" d="m204.68242 242.35031l-60.157486 0l0 -220.88188l60.157486 0z" fill-rule="evenodd"></path><path stroke="#b7b7b7" stroke-width="12.0" stroke-linejoin="round" stroke-linecap="butt" d="m204.68242 242.35031l-60.157486 0l0 -220.88188l60.157486 0z" fill-rule="evenodd"></path><path fill="#000000" fill-opacity="0.0" d="m362.1168 33.184963l1113.8898 0l0 142.77165l-1113.8898 0z" fill-rule="evenodd"></path><path fill="#d9d9d9" d="m400.4293 182.98497l-15.890625 0q-2.953125 0 -4.515625 -1.546875q-1.546875 -1.5625 -1.546875 -4.515625l0 -69.10938q0 -2.953125 1.546875 -4.5q1.5625 -1.5625 4.515625 -1.5625l17.171875 0q2.375 0 3.984375 1.09375q1.625 1.078125 2.859375 3.25l9.59375 17.390625q0.421875 0.75 0.203125 1.125q-0.21875 0.359375 -0.21875 -0.453125l0.953125 0q0 0.8125 -0.21875 0.453125q-0.21875 -0.375 0.203125 -1.125l9.5 -17.390625q1.21875 -2.171875 2.84375 -3.25q1.625 -1.09375 4.0 -1.09375l17.28125 0q2.9375 0 4.484375 1.5625q1.5625 1.546875 1.5625 4.5l0 69.10938q0 2.953125 -1.5625 4.515625q-1.546875 1.546875 -4.484375 1.546875l-16.4375 0q-2.9375 0 -4.5 -1.546875q-1.546875 -1.5625 -1.546875 -4.515625l0 -28.78125l-2.125 3.921875q-1.25 2.359375 -3.109375 3.46875q-1.859375 1.109375 -4.5 1.109375l-4.265625 0q-2.640625 0 -4.5 -1.109375q-1.859375 -1.109375 -3.109375 -3.46875l-2.109375 -3.890625l0 28.75q0 2.953125 -1.578125 4.515625q-1.5625 1.546875 -4.484375 1.546875zm109.73871 0l-17.265625 0q-2.953125 0 -4.515625 -1.546875q-1.546875 -1.5625 -1.546875 -4.515625l0 -12.90625l-15.875 -21.28125q-2.671875 -3.59375 -3.59375 -6.375q-0.90625 -2.796875 -0.90625 -8.0625l0 -20.484383q0 -2.953125 1.546875 -4.5q1.5625 -1.5625 4.515625 -1.5625l16.421875 0q2.953125 0 4.5 1.5625q1.5625 1.546875 1.5625 4.5l0 17.484375q0 0.984375 0.0625 1.8125q0.078125 0.8125 0.515625 1.4375076l4.96875 7.78125q0.328125 0.59375 0.421875 0.671875q0.09375 0.0625 0.234375 0.0625l1.0625 0q0.140625 0 0.234375 -0.0625q0.09375 -0.078125 0.421875 -0.671875l4.96875 -7.78125q0.4375 -0.6250076 0.515625 -1.4531326q0.078125 -0.828125 0.078125 -1.796875l0 -17.484375q0 -2.953125 1.546875 -4.5q1.5625 -1.5625 4.5000305 -1.5625l15.890625 0q2.953125 0 4.5 1.5625q1.5625 1.546875 1.5625 4.5l0 20.484383q0 5.28125 -0.96875 8.0625q-0.96875 2.78125 -3.5 6.34375l-15.796875 21.40625l0 12.8125q0 2.953125 -1.5625 4.515625q-1.546875 1.546875 -4.5000305 1.546875z" fill-rule="nonzero"></path><path fill="#d9d9d9" d="m549.0326 192.8756q-2.640625 0 -4.046875 -1.40625q-1.40625 -1.40625 -1.40625 -4.046875l0 -12.875q0 -2.640625 1.40625 -4.046875q1.40625 -1.40625 4.046875 -1.40625l50.109375 0q2.65625 0 4.0625 1.40625q1.40625 1.40625 1.40625 4.046875l0 12.875q0 2.640625 -1.40625 4.046875q-1.40625 1.40625 -4.0625 1.40625l-50.109375 0z" fill-rule="nonzero"></path><path fill="#d9d9d9" d="m647.6216 182.98497l-21.84375 0q-4.0625 0 -6.203125 -2.140625q-2.125 -2.15625 -2.125 -6.1875l0 -95.03126q0 -4.03125 2.125 -6.171875q2.140625 -2.15625 6.203125 -2.15625l23.609375 0q3.265625 0 5.484375 1.484375q2.234375 1.484375 3.921875 4.484375l13.1875 23.90625q0.578125 1.03125 0.28125 1.53125q-0.296875 0.5 -0.296875 -0.609375l1.328125 0q0 1.109375 -0.296875 0.609375q-0.296875 -0.5 0.265625 -1.515625l13.046875 -23.90625q1.6875 -3.015625 3.90625 -4.5q2.234375 -1.484375 5.515625 -1.484375l23.75 0q4.0625 0 6.1875 2.15625q2.140625 2.140625 2.140625 6.171875l0 95.03126q0 4.03125 -2.140625 6.1875q-2.125 2.140625 -6.1875 2.140625l-22.578125 0q-4.0625 0 -6.203125 -2.140625q-2.125 -2.15625 -2.125 -6.1875l0 -39.59375l-2.921875 5.390625q-1.703125 3.234375 -4.265625 4.78125q-2.5625 1.53125 -6.1875 1.53125l-5.875 0q-3.625 0 -6.1875 -1.53125q-2.5625 -1.546875 -4.265625 -4.78125l-2.921875 -5.390625l0 39.59375q0 4.046875 -2.140625 6.1875q-2.140625 2.140625 -6.1875 2.140625z" fill-rule="nonzero"></path><path fill="#d9d9d9" d="m794.7421 182.98497l-49.484375 0q-2.953125 0 -4.515625 -1.546875q-1.546875 -1.5625 -1.546875 -4.515625l0 -69.10938q0 -2.953125 1.546875 -4.5q1.5625 -1.5625 4.515625 -1.5625l49.484375 0q2.953125 0 4.5 1.5625q1.5625 1.546875 1.5625 4.5l0 12.484375q0 2.9375 -1.5625 4.5q-1.546875 1.546875 -4.5 1.546875l-27.21875 0l0 3.7812576l18.578125 0q2.953125 0 4.5 1.5625q1.5625 1.546875 1.5625 4.5l0 11.40625q0 2.953125 -1.5625 4.515625q-1.546875 1.546875 -4.5 1.546875l-18.578125 0l0 4.734375l27.21875 0q2.953125 0 4.5 1.5625q1.5625 1.546875 1.5625 4.5l0 12.46875q0 2.953125 -1.5625 4.515625q-1.546875 1.546875 -4.5 1.546875zm56.20636 0l-35.9375 0q-2.953125 0 -4.515625 -1.546875q-1.546875 -1.5625 -1.546875 -4.515625l0 -69.10938q0 -2.953125 1.546875 -4.5q1.5625 -1.5625 4.515625 -1.5625l35.9375 0q14.125 0 21.28125 5.921875q7.171875 5.921875 7.171875 18.0625l0 33.265633q0 12.140625 -7.171875 18.0625q-7.15625 5.921875 -21.28125 5.921875zm-13.359375 -56.421883l0 31.828133l10.484375 0q1.609375 0 2.203125 -0.609375q0.59375 -0.625 0.59375 -2.40625l0 -25.90625q0 -1.7500076 -0.578125 -2.3281326q-0.578125 -0.578125 -2.21875 -0.578125l-10.484375 0z" fill-rule="nonzero"></path><path fill="#d9d9d9" d="m944.186 182.98497l-23.765625 0q-4.046875 0 -6.1875 -2.140625q-2.140625 -2.140625 -2.140625 -6.1875l0 -68.95313l-18.5 0q-4.0625 0 -6.203125 -2.140625q-2.125 -2.15625 -2.125 -6.1875l0 -17.75q0 -4.03125 2.125 -6.171875q2.140625 -2.15625 6.203125 -2.15625l77.4375 0q4.046875 0 6.171875 2.15625q2.140625 2.140625 2.140625 6.171875l0 17.75q0 4.03125 -2.140625 6.1875q-2.125 2.140625 -6.171875 2.140625l-18.515625 0l0 68.95313q0 4.046875 -2.140625 6.1875q-2.140625 2.140625 -6.1875 2.140625z" fill-rule="nonzero"></path><path fill="#d9d9d9" d="m1013.26746 125.39121l0 9.218758l5.78125 0q1.578125 0 2.015625 -0.671875q0.453125 -0.671875 0.453125 -2.125l0 -3.625q0 -1.4687576 -0.453125 -2.1250076q-0.4375 -0.671875 -2.015625 -0.671875l-5.78125 0zm-6.0625 57.593758l-16.421875 0q-2.953125 0 -4.515625 -1.546875q-1.546875 -1.5625 -1.546875 -4.515625l0 -69.10938q0 -2.953125 1.546875 -4.5q1.5625 -1.5625 4.515625 -1.5625l35.515625 0q12.921875 0 18.078125 5.640625q5.15625 5.640625 5.15625 14.390625l0 4.90625q0 4.9375076 -1.609375 8.718758q-1.59375 3.765625 -2.921875 2.921875q3.1875 -0.953125 7.3125 3.734375q4.140625 4.6875 4.140625 12.25l0 22.609375q0 2.953125 -1.5625 4.515625q-1.546875 1.546875 -4.5 1.546875l-16.53125 0q-2.9375 0 -4.5 -1.546875q-1.546875 -1.5625 -1.546875 -4.515625l0 -16.3125q0 -1.5625 -0.328125 -1.96875q-0.328125 -0.40625 -1.515625 -0.40625l-12.703125 0l0 18.6875q0 2.953125 -1.5625 4.515625q-1.546875 1.546875 -4.5 1.546875zm88.901855 -55.843758l-4.078125 13.218758l10.71875 0l-4.078125 -13.203133q-0.1875 -0.40625 -0.078125 -0.65625q0.125 -0.25 0.125 0.28125l-2.671875 0q0 -0.53125 0.125 -0.28125q0.125 0.25 -0.0625 0.640625zm-5.953125 49.781258q0 2.953125 -1.5625 4.515625q-1.546875 1.546875 -4.484375 1.546875l-15.6875 0q-2.9375 0 -4.5 -1.546875q-1.546875 -1.5625 -1.546875 -4.515625l0 -28.15625q0 -3.46875 1.046875 -7.8125q1.0625 -4.359375 3.25 -10.046875l9.28125 -24.171883q0.875 -2.515625 2.796875 -3.75q1.921875 -1.234375 4.71875 -1.234375l28.6875 0q2.6875 0 4.609375 1.234375q1.921875 1.234375 2.796875 3.75l9.28125 24.171883q2.1875 5.6875 3.234375 10.046875q1.0625 4.34375 1.0625 7.8125l0 28.15625q0 2.953125 -1.5625 4.515625q-1.546875 1.546875 -4.484375 1.546875l-16.109375 0q-2.984375 0 -4.6875 -1.515625q-1.6875 -1.53125 -1.6875 -4.546875l0 -12.703125l-14.453125 0l0 12.703125zm104.98413 6.0625l-26.03125 0q-14.125 0 -21.296875 -5.921875q-7.15625 -5.921875 -7.15625 -18.0625l0 -33.156258q0 -12.125 7.15625 -18.109375q7.15625 -5.984375 21.296875 -5.984375l26.03125 0q2.9375 0 4.484375 1.5625q1.5625 1.546875 1.5625 4.5l0 12.90625q0 2.953125 -1.5625 4.515625q-1.546875 1.546875 -4.484375 1.546875l-21.4375 0q-2.515625 0 -3.40625 0.75q-0.890625 0.7343826 -0.890625 2.3593826l0 25.390625q0 1.5625 0.859375 2.234375q0.875 0.65625 3.4375 0.65625l21.4375 0q2.9375 0 4.484375 1.5625q1.5625 1.546875 1.5625 4.5l0 12.6875q0 2.953125 -1.5625 4.515625q-1.546875 1.546875 -4.484375 1.546875zm36.261353 0l-16.53125 0q-2.953125 0 -4.515625 -1.546875q-1.546875 -1.5625 -1.546875 -4.515625l0 -69.10938q0 -2.953125 1.546875 -4.5q1.5625 -1.5625 4.515625 -1.5625l16.53125 0q2.9375 0 4.484375 1.5625q1.5625 1.546875 1.5625 4.5l0 22.312508l0.625 0l10.375 -23.468758q0.96875 -2.5625 2.828125 -3.734375q1.875 -1.171875 4.546875 -1.171875l16.421875 0q2.96875 0 4.296875 1.890625q1.328125 1.875 0.078125 4.75l-9.59375 21.906258q3.671875 0.1875 7.84375 4.75q4.1875 4.546875 4.1875 11.796875l0 30.078125q0 2.953125 -1.5625 4.515625q-1.546875 1.546875 -4.5 1.546875l-16.421875 0q-2.953125 0 -4.515625 -1.546875q-1.546875 -1.5625 -1.546875 -4.515625l0 -20.796875q0 -0.859375 -0.25 -1.125q-0.234375 -0.28125 -0.9375 -0.28125l-11.875 0l0 22.203125q0 2.953125 -1.5625 4.515625q-1.546875 1.546875 -4.484375 1.546875zm112.5188 0l-49.484375 0q-2.953125 0 -4.515625 -1.546875q-1.546875 -1.5625 -1.546875 -4.515625l0 -69.10938q0 -2.953125 1.546875 -4.5q1.5625 -1.5625 4.515625 -1.5625l49.484375 0q2.953125 0 4.5 1.5625q1.5625 1.546875 1.5625 4.5l0 12.484375q0 2.9375 -1.5625 4.5q-1.546875 1.546875 -4.5 1.546875l-27.21875 0l0 3.7812576l18.578125 0q2.953125 0 4.5 1.5625q1.5625 1.546875 1.5625 4.5l0 11.40625q0 2.953125 -1.5625 4.515625q-1.546875 1.546875 -4.5 1.546875l-18.578125 0l0 4.734375l27.21875 0q2.953125 0 4.5 1.5625q1.5625 1.546875 1.5625 4.5l0 12.46875q0 2.953125 -1.5625 4.515625q-1.546875 1.546875 -4.5 1.546875zm42.753296 -57.593758l0 9.218758l5.78125 0q1.578125 0 2.015625 -0.671875q0.453125 -0.671875 0.453125 -2.125l0 -3.625q0 -1.4687576 -0.453125 -2.1250076q-0.4375 -0.671875 -2.015625 -0.671875l-5.78125 0zm-6.062622 57.593758l-16.421875 0q-2.953125 0 -4.515625 -1.546875q-1.546875 -1.5625 -1.546875 -4.515625l0 -69.10938q0 -2.953125 1.546875 -4.5q1.5625 -1.5625 4.515625 -1.5625l35.515747 0q12.921875 0 18.078125 5.640625q5.15625 5.640625 5.15625 14.390625l0 4.90625q0 4.9375076 -1.609375 8.718758q-1.59375 3.765625 -2.921875 2.921875q3.1875 -0.953125 7.3125 3.734375q4.140625 4.6875 4.140625 12.25l0 22.609375q0 2.953125 -1.5625 4.515625q-1.546875 1.546875 -4.5 1.546875l-16.53125 0q-2.9375 0 -4.5 -1.546875q-1.546875 -1.5625 -1.546875 -4.515625l0 -16.3125q0 -1.5625 -0.328125 -1.96875q-0.328125 -0.40625 -1.515625 -0.40625l-12.703125 0l0 18.6875q0 2.953125 -1.5626221 4.515625q-1.546875 1.546875 -4.5 1.546875z" fill-rule="nonzero"></path><defs><radialGradient id="p.2" gradientUnits="userSpaceOnUse" gradientTransform="matrix(0.0 -11.187675496064827 11.187675496064827 0.0 0.0 0.0)" spreadMethod="pad" cx="-12.315405643533412" cy="15.636816835406547" fx="-12.315405643533412" fy="15.636816835406547" r="11.187675476074219"><stop offset="0.0" stop-color="#4e29aa"></stop><stop offset="1.0" stop-color="#1e123d"></stop></radialGradient></defs><path fill="url(#p.2)" d="m53.175854 166.75714l0 -57.95276l243.52754 0l0 57.95276z" fill-rule="evenodd"></path><path stroke="#b7b7b7" stroke-width="12.0" stroke-linejoin="round" stroke-linecap="butt" d="m53.175854 166.75714l0 -57.95276l243.52754 0l0 57.95276z" fill-rule="evenodd"></path><defs><radialGradient id="p.3" gradientUnits="userSpaceOnUse" gradientTransform="matrix(0.0 10.925304411904602 -10.925304411904602 0.0 0.0 0.0)" spreadMethod="pad" cx="12.510260088369085" cy="-16.013776273985574" fx="12.510260088369085" fy="-16.013776273985574" r="10.925304412841797"><stop offset="0.0" stop-color="#ffffff"></stop><stop offset="1.0" stop-color="#b3b3b3"></stop></radialGradient></defs><path fill="url(#p.3)" d="m291.20734 109.60754l0 54.14173l-232.50392 0l0 -54.14173z" fill-rule="evenodd"></path><defs><radialGradient id="p.4" gradientUnits="userSpaceOnUse" gradientTransform="matrix(10.51122453024994 0.0 0.0 10.51122453024994 0.0 0.0)" spreadMethod="pad" cx="16.58144948584147" cy="12.586837173232503" fx="16.58144948584147" fy="12.586837173232503" r="10.511224746704102"><stop offset="0.0" stop-color="#ffffff"></stop><stop offset="1.0" stop-color="#b3b3b3"></stop></radialGradient></defs><path fill="url(#p.4)" d="m147.22047 25.184961l54.141724 0l0 214.23622l-54.141724 0z" fill-rule="evenodd"></path><path fill="#880e4f" d="m109.84111 173.51811l0 0c0 -1.9756622 1.6015854 -3.57724 3.5772476 -3.57724l21.34945 0c0.9487457 0 1.8586273 0.37687683 2.5294952 1.0477448c0.67085266 0.6708679 1.0477448 1.5807495 1.0477448 2.5294952l0 73.19197c0 1.975647 -1.6015778 3.57724 -3.57724 3.57724l-21.34945 0l0 0c-1.9756622 0 -3.5772476 -1.601593 -3.5772476 -3.57724z" fill-rule="evenodd"></path><path stroke="#880e4f" stroke-width="1.0" stroke-linejoin="round" stroke-linecap="butt" d="m109.84111 173.51811l0 0c0 -1.9756622 1.6015854 -3.57724 3.5772476 -3.57724l21.34945 0c0.9487457 0 1.8586273 0.37687683 2.5294952 1.0477448c0.67085266 0.6708679 1.0477448 1.5807495 1.0477448 2.5294952l0 73.19197c0 1.975647 -1.6015778 3.57724 -3.57724 3.57724l-21.34945 0l0 0c-1.9756622 0 -3.5772476 -1.601593 -3.5772476 -3.57724z" fill-rule="evenodd"></path><path fill="#880e4f" d="m209.77165 173.65465l0 0c0 -2.0510712 1.6627197 -3.7137756 3.7137756 -3.7137756l21.076385 0c0.98495483 0 1.9295654 0.39126587 2.6260376 1.087738c0.69647217 0.69647217 1.087738 1.6410828 1.087738 2.6260376l0 72.41496c0 2.051056 -1.6627197 3.7137756 -3.7137756 3.7137756l-21.076385 0l0 0c-2.051056 0 -3.7137756 -1.6627197 -3.7137756 -3.7137756z" fill-rule="evenodd"></path></g></svg>

