<?xml version="1.0" standalone="yes"?>

<svg version="1.1" viewBox="0.0 0.0 321.48818897637796 259.90551181102364" fill="none" stroke="none" stroke-linecap="square" stroke-miterlimit="10" xmlns="http://www.w3.org/2000/svg" xmlns:xlink="http://www.w3.org/1999/xlink"><clipPath id="p.0"><path d="m0 0l321.4882 0l0 259.90552l-321.4882 0l0 -259.90552z" clip-rule="nonzero"></path></clipPath><g clip-path="url(#p.0)"><path fill="#000000" fill-opacity="0.0" d="m0 0l321.4882 0l0 259.90552l-321.4882 0z" fill-rule="evenodd"></path><path fill="#880e4f" d="m7.358268 31.01493l0 0c0 -14.528551 11.777719 -26.306269 26.306267 -26.306269l254.1591 0c6.9768677 0 13.667969 2.7715454 18.601349 7.704928c4.93338 4.933382 7.7049255 11.624485 7.7049255 18.601341l0 197.87564c0 14.528549 -11.77771 26.306274 -26.306274 26.306274l-254.1591 0c-14.528549 0 -26.306267 -11.777725 -26.306267 -26.306274z" fill-rule="evenodd"></path><path fill="#9900ff" d="m128.16472 104.16107l64.25197 0l0 98.3622l-64.25197 0z" fill-rule="evenodd"></path><defs><radialGradient id="p.1" gradientUnits="userSpaceOnUse" gradientTransform="matrix(8.292730707489678 0.0 0.0 8.292730707489678 0.0 0.0)" spreadMethod="pad" cx="30.57800757785113" cy="20.017973686512615" fx="30.57800757785113" fy="20.017973686512615" r="8.292730331420898"><stop offset="0.0" stop-color="#db0000"></stop><stop offset="1.0" stop-color="#540303"></stop></radialGradient></defs><path fill="url(#p.1)" d="m223.49644 104.16115l60.157486 0l0 123.68504l-60.157486 0z" fill-rule="evenodd"></path><path fill="#d9d9d9" d="m31.309711 111.94421l0 0c0 -4.2932434 3.480362 -7.7736053 7.7736053 -7.7736053l240.26382 0c2.061676 0 4.0389404 0.81900024 5.496765 2.2768326c1.4578247 1.45784 2.276825 3.4350815 2.276825 5.496773l0 108.137825c0 4.2932434 -3.4803467 7.7736053 -7.77359 7.7736053l-240.26382 0c-4.2932434 0 -7.7736053 -3.480362 -7.7736053 -7.7736053z" fill-rule="evenodd"></path><path fill="#b7b7b7" d="m222.8819 109.80538l0 0c0 -3.3540802 2.7190094 -6.073097 6.0730896 -6.073097l52.105774 0c1.6106873 0 3.1553955 0.6398392 4.294342 1.7787704c1.138916 1.1389236 1.7787476 2.6836395 1.7787476 4.294327l0 130.62546c0 3.354065 -2.7190247 6.0730896 -6.0730896 6.0730896l-52.105774 0c-3.3540802 0 -6.0730896 -2.7190247 -6.0730896 -6.0730896z" fill-rule="evenodd"></path><path fill="#9900ff" d="m128.16472 153.03836l0 0c0 -0.65231323 0.5288086 -1.1811218 1.1811371 -1.1811218l4.72435 0l0 0c0.31326294 0 0.613678 0.124435425 0.8351898 0.34594727c0.22149658 0.22149658 0.34594727 0.5219269 0.34594727 0.83517456l0 31.842484c0 0.65231323 -0.5288086 1.1811218 -1.1811371 1.1811218l-4.72435 0c-0.6523285 0 -1.1811371 -0.5288086 -1.1811371 -1.1811218z" fill-rule="evenodd"></path><path fill="#b7b7b7" d="m31.312336 108.81728l0 0c0 -4.5964203 3.7261353 -8.322563 8.322559 -8.322563l47.60685 0c2.207283 0 4.3241577 0.8768387 5.884941 2.437622c1.5607834 1.5607834 2.437622 3.677658 2.437622 5.884941l0 130.28403c0 4.5964203 -3.726143 8.322556 -8.322563 8.322556l-47.60685 0l0 0c-4.596424 0 -8.322559 -3.7261353 -8.322559 -8.322556z" fill-rule="evenodd"></path><path fill="#000000" d="m189.30183 239.52756l-60.15747 0l0 -220.88188l60.15747 0z" fill-rule="evenodd"></path><path stroke="#b7b7b7" stroke-width="12.0" stroke-linejoin="round" stroke-linecap="butt" d="m189.30183 239.52756l-60.15747 0l0 -220.88188l60.15747 0z" fill-rule="evenodd"></path><defs><radialGradient id="p.2" gradientUnits="userSpaceOnUse" gradientTransform="matrix(0.0 -11.187675496064827 11.187675496064827 0.0 0.0 0.0)" spreadMethod="pad" cx="-12.06309615405043" cy="14.262038184271061" fx="-12.06309615405043" fy="14.262038184271061" r="11.187675476074219"><stop offset="0.0" stop-color="#4e29aa"></stop><stop offset="1.0" stop-color="#1e123d"></stop></radialGradient></defs><path fill="url(#p.2)" d="m37.795277 163.93439l0 -57.95276l243.52757 0l0 57.95276z" fill-rule="evenodd"></path><path stroke="#b7b7b7" stroke-width="12.0" stroke-linejoin="round" stroke-linecap="butt" d="m37.795277 163.93439l0 -57.95276l243.52757 0l0 57.95276z" fill-rule="evenodd"></path><defs><radialGradient id="p.3" gradientUnits="userSpaceOnUse" gradientTransform="matrix(0.0 10.925304411904602 -10.925304411904602 0.0 0.0 0.0)" spreadMethod="pad" cx="12.251891388835404" cy="-14.605982326289041" fx="12.251891388835404" fy="-14.605982326289041" r="10.925304412841797"><stop offset="0.0" stop-color="#ffffff"></stop><stop offset="1.0" stop-color="#b3b3b3"></stop></radialGradient></defs><path fill="url(#p.3)" d="m275.82678 106.784775l0 54.14174l-232.50395 0l0 -54.14174z" fill-rule="evenodd"></path><defs><radialGradient id="p.4" gradientUnits="userSpaceOnUse" gradientTransform="matrix(10.51122453024994 0.0 0.0 10.51122453024994 0.0 0.0)" spreadMethod="pad" cx="15.118196809280505" cy="12.318290279881507" fx="15.118196809280505" fy="12.318290279881507" r="10.511224746704102"><stop offset="0.0" stop-color="#ffffff"></stop><stop offset="1.0" stop-color="#b3b3b3"></stop></radialGradient></defs><path fill="url(#p.4)" d="m131.83989 22.362206l54.14174 0l0 214.2362l-54.14174 0z" fill-rule="evenodd"></path><path fill="#880e4f" d="m95.56431 170.557l0 0c0 -1.8992462 1.5396423 -3.4389038 3.4388962 -3.4389038l20.52378 0c0.91204834 0 1.7867432 0.36231995 2.4316635 1.0072327c0.64492035 0.644928 1.0072327 1.5196228 1.0072327 2.4316711l0 73.46866c0 1.8992615 -1.53965 3.4389038 -3.4388962 3.4389038l-20.52378 0l0 0c-1.8992538 0 -3.4388962 -1.5396423 -3.4388962 -3.4389038z" fill-rule="evenodd"></path><path stroke="#880e4f" stroke-width="1.0" stroke-linejoin="round" stroke-linecap="butt" d="m95.56431 170.557l0 0c0 -1.8992462 1.5396423 -3.4389038 3.4388962 -3.4389038l20.52378 0c0.91204834 0 1.7867432 0.36231995 2.4316635 1.0072327c0.64492035 0.644928 1.0072327 1.5196228 1.0072327 2.4316711l0 73.46866c0 1.8992615 -1.53965 3.4389038 -3.4388962 3.4389038l-20.52378 0l0 0c-1.8992538 0 -3.4388962 -1.5396423 -3.4388962 -3.4389038z" fill-rule="evenodd"></path><path fill="#880e4f" d="m194.39108 170.8319l0 0c0 -2.0510712 1.6627045 -3.713791 3.7137756 -3.713791l21.07637 0c0.98495483 0 1.9295807 0.39128113 2.6260376 1.0877533c0.69647217 0.6964569 1.0877533 1.6410828 1.0877533 2.6260376l0 72.41496c0 2.051056 -1.6627197 3.7137756 -3.713791 3.7137756l-21.07637 0l0 0c-2.0510712 0 -3.7137756 -1.6627197 -3.7137756 -3.7137756z" fill-rule="evenodd"></path></g></svg>

