<?xml version="1.0" standalone="yes"?>

<svg version="1.1" viewBox="0.0 0.0 1287.0 262.0" fill="none" stroke="none" stroke-linecap="square" stroke-miterlimit="10" xmlns="http://www.w3.org/2000/svg" xmlns:xlink="http://www.w3.org/1999/xlink"><clipPath id="p.0"><path d="m0 0l1287.0 0l0 262.0l-1287.0 0l0 -262.0z" clip-rule="nonzero"></path></clipPath><g clip-path="url(#p.0)"><path fill="#000000" fill-opacity="0.0" d="m0 0l1287.0 0l0 262.0l-1287.0 0z" fill-rule="evenodd"></path><path fill="#880e4f" d="m464.13965 97.80881l292.28345 0l0 106.67717l-292.28345 0z" fill-rule="evenodd"></path><path fill="#880e4f" d="m1147.8074 91.128006l0 59.086624l-1066.0472 0l0 -59.086624z" fill-rule="evenodd"></path><path fill="#880e4f" d="m895.0347 116.39183l0 0c0 -15.107681 12.247192 -27.354874 27.354858 -27.354874l237.57379 0c7.254883 0 14.212769 2.882019 19.342773 8.012054c5.130005 5.1300354 8.012085 12.0878525 8.012085 19.34282l0 109.41623c0 15.107681 -12.247192 27.354874 -27.354858 27.354874l-237.57379 0c-15.107666 0 -27.354858 -12.247192 -27.354858 -27.354874z" fill-rule="evenodd"></path><path fill="#880e4f" d="m464.13965 154.91833l0 0c0 -2.9745636 2.4113464 -5.3859253 5.3859253 -5.3859253l21.54309 0l0 0c1.4284363 0 2.7983704 0.56744385 3.8084412 1.5774994c1.0100403 1.0100555 1.5774841 2.3799896 1.5774841 3.808426l0 26.298996c0 2.9745789 -2.4113464 5.3859406 -5.3859253 5.3859406l-21.54309 0c-2.9745789 0 -5.3859253 -2.4113617 -5.3859253 -5.3859406z" fill-rule="evenodd"></path><path fill="#880e4f" d="m727.1588 106.275l0 0c0 -20.763733 16.832336 -37.59606 37.59607 -37.59606l92.74487 0l0 0c9.97113 0 19.533813 3.9610062 26.584412 11.011635c7.050659 7.0506287 11.011658 16.613335 11.011658 26.584427l0 109.31182c0 20.763733 -16.832336 37.596054 -37.59607 37.596054l-92.74487 0c-20.763733 0 -37.59607 -16.832321 -37.59607 -37.596054z" fill-rule="evenodd"></path><path fill="#880e4f" d="m310.81024 110.390495l0 0c0 -22.749756 18.442322 -41.192078 41.192078 -41.192078l103.22217 0l0 0c10.924805 0 21.40216 4.3398666 29.127197 12.06488c7.725006 7.7250137 12.06488 18.202377 12.06488 29.127197l0 101.61584c0 22.749756 -18.442322 41.192078 -41.192078 41.192078l-103.22217 0c-22.749756 0 -41.192078 -18.442322 -41.192078 -41.192078z" fill-rule="evenodd"></path><path fill="#880e4f" d="m99.53685 151.64975l0 -61.95276l1011.77954 0l0 61.95276z" fill-rule="evenodd"></path><path fill="#880e4f" d="m490.08032 77.72695l230.67719 0l0 89.73229l-230.67719 0z" fill-rule="evenodd"></path><path fill="#880e4f" d="m10.744095 117.331276l0 0c0 -15.617943 12.660841 -28.278786 28.278782 -28.278786l1208.9543 0c7.5 0 14.692749 2.9793625 19.996094 8.282669c5.3032227 5.303299 8.282593 12.496117 8.282593 19.996117l0 113.11173c0 15.617935 -12.660767 28.278763 -28.278687 28.278763l-1208.9543 0c-15.617941 0 -28.278782 -12.660828 -28.278782 -28.278763z" fill-rule="evenodd"></path><path fill="#880e4f" d="m742.27216 235.17194l-273.7008 0l0 -224.8189l273.7008 0z" fill-rule="evenodd"></path><path fill="#880e4f" d="m10.744095 27.728855l0 0c0 -13.5037155 10.946924 -24.45064 24.450642 -24.45064l1216.6106 0c6.484619 0 12.703735 2.5760424 17.289185 7.1614265c4.585327 4.5853844 7.161377 10.804501 7.161377 17.289213l0 183.91762c0 13.503723 -10.946899 24.450638 -24.450562 24.450638l-1216.6106 0c-13.503717 0 -24.450642 -10.946915 -24.450642 -24.450638z" fill-rule="evenodd"></path><path fill="#880e4f" d="m897.8229 97.80966l277.35437 0l0 137.35432l-277.35437 0z" fill-rule="evenodd"></path><path fill="#880e4f" d="m53.883835 137.3335l222.39369 0l0 116.88188l-222.39369 0z" fill-rule="evenodd"></path><path fill="#9900ff" d="m131.55186 102.73063l64.25197 0l0 98.362206l-64.25197 0z" fill-rule="evenodd"></path><defs><radialGradient id="p.1" gradientUnits="userSpaceOnUse" gradientTransform="matrix(8.292730707489678 0.0 0.0 8.292730707489678 0.0 0.0)" spreadMethod="pad" cx="30.986454352150993" cy="19.845479698141112" fx="30.986454352150993" fy="19.845479698141112" r="8.292730331420898"><stop offset="0.0" stop-color="#db0000"></stop><stop offset="1.0" stop-color="#540303"></stop></radialGradient></defs><path fill="url(#p.1)" d="m226.88358 102.7307l60.1575 0l0 123.68504l-60.1575 0z" fill-rule="evenodd"></path><path fill="#d9d9d9" d="m34.69685 110.513756l0 0c0 -4.2932434 3.480362 -7.7735977 7.7736053 -7.7735977l240.26382 0c2.061676 0 4.03891 0.81900024 5.496765 2.2768326c1.4578247 1.4578323 2.276825 3.4350815 2.276825 5.496765l0 108.13784c0 4.2932434 -3.4803467 7.7736053 -7.77359 7.7736053l-240.26382 0c-4.2932434 0 -7.7736053 -3.480362 -7.7736053 -7.7736053z" fill-rule="evenodd"></path><defs><linearGradient id="p.2" gradientUnits="userSpaceOnUse" gradientTransform="matrix(11.948719151214279 0.0 0.0 11.948719151214279 0.0 0.0)" spreadMethod="pad" x1="18.936676476189223" y1="8.56172114896327" x2="18.93663357357957" y2="20.510440300100527"><stop offset="0.0" stop-color="#bfbfbf"></stop><stop offset="1.0" stop-color="#737373"></stop></linearGradient></defs><path fill="url(#p.2)" d="m226.26903 108.37493l0 0c0 -3.3540726 2.7190247 -6.073097 6.0730896 -6.073097l52.10579 0c1.6106873 0 3.1553955 0.6398468 4.2943115 1.7787704c1.1389465 1.1389313 1.7787781 2.6836472 1.7787781 4.294327l0 130.62546c0 3.3540802 -2.7190247 6.0730896 -6.0730896 6.0730896l-52.10579 0c-3.354065 0 -6.0730896 -2.7190094 -6.0730896 -6.0730896z" fill-rule="evenodd"></path><path fill="#9900ff" d="m131.55186 151.60793l0 0c0 -0.6523285 0.5288086 -1.1811371 1.1811218 -1.1811371l4.724365 0l0 0c0.31324768 0 0.613678 0.12445068 0.83517456 0.34594727c0.22151184 0.22151184 0.34594727 0.5219269 0.34594727 0.8351898l0 31.842468c0 0.65231323 -0.5288086 1.1811218 -1.1811218 1.1811218l-4.724365 0c-0.65231323 0 -1.1811218 -0.5288086 -1.1811218 -1.1811218z" fill-rule="evenodd"></path><defs><linearGradient id="p.3" gradientUnits="userSpaceOnUse" gradientTransform="matrix(12.12144298019909 0.0 0.0 12.12144298019909 0.0 0.0)" spreadMethod="pad" x1="2.862652171222512" y1="8.172627471459153" x2="2.8626083997567187" y2="20.294070451579213"><stop offset="0.0" stop-color="#bfbfbf"></stop><stop offset="1.0" stop-color="#737373"></stop></linearGradient></defs><path fill="url(#p.3)" d="m34.699474 107.38683l0 0c0 -4.5964203 3.7261353 -8.322556 8.322559 -8.322556l47.60685 0c2.207283 0 4.3241577 0.8768387 5.884941 2.437622c1.5607834 1.5607834 2.437622 3.677658 2.437622 5.8849335l0 130.28403c0 4.5964203 -3.7261353 8.322556 -8.322563 8.322556l-47.60685 0l0 0c-4.596424 0 -8.322559 -3.7261353 -8.322559 -8.322556z" fill-rule="evenodd"></path><path fill="#000000" d="m192.68898 238.0971l-60.157486 0l0 -220.88188l60.157486 0z" fill-rule="evenodd"></path><path stroke="#999999" stroke-width="12.0" stroke-linejoin="round" stroke-linecap="butt" d="m192.68898 238.0971l-60.157486 0l0 -220.88188l60.157486 0z" fill-rule="evenodd"></path><path fill="#000000" fill-opacity="0.0" d="m310.80972 68.67979l948.91345 0l0 142.77167l-948.91345 0z" fill-rule="evenodd"></path><path fill="#999999" d="m422.08157 135.73041q0 1.21875 -0.1875 2.625q-0.171875 1.40625 -0.515625 2.921875l-6.609375 28.5625l-14.21875 0l5.078125 -21.921875q0.515625 -2.265625 0.921875 -4.328125q0.40625 -2.078125 0.40625 -3.359375q0 -2.265625 -1.25 -3.3125q-1.25 -1.0625 -4.453125 -1.0625q-1.515625 0 -3.453125 0.71875q-1.9375 0.71875 -4.671875 2.171875l-7.1875 31.09375l-14.21875 0l5.078125 -21.921875q0.4375 -1.90625 0.859375 -4.125q0.4375 -2.234375 0.4375 -3.40625q0 -2.390625 -1.203125 -3.453125q-1.1875 -1.078125 -4.421875 -1.078125q-1.6875 0 -3.6875 0.78125q-1.984375 0.78125 -4.484375 2.109375l-7.1875 31.09375l-14.140625 0l10.15625 -43.875l14.140625 0l-1.125 4.84375q4.296875 -2.84375 7.75 -4.4375q3.453125 -1.609375 7.484375 -1.609375q4.328125 0 7.296875 1.9375q2.96875 1.921875 4.140625 5.671875q5.234375 -3.78125 9.375 -5.6875q4.140625 -1.921875 8.015625 -1.921875q5.78125 0 8.828125 2.859375q3.046875 2.84375 3.046875 8.109375zm21.710938 50.203125l-15.421875 0l11.171875 -16.953125l-7.234375 -43.015625l14.375 0l3.796875 28.75l16.71875 -28.75l14.84375 0l-38.25 59.96875zm85.50784 -10.65625l-1.875 8.234375l-58.12503 0l1.875 -8.234375l58.12503 0z" fill-rule="nonzero"></path><path fill="#999999" d="m561.3941 169.83978l-14.3125 0q-2.65625 0 -4.0625 -1.390625q-1.390625 -1.40625 -1.390625 -4.0625l0 -62.203125q0 -2.65625 1.390625 -4.0625q1.40625 -1.40625 4.0625 -1.40625l15.453125 0q2.15625 0 3.609375 0.984375q1.468689 0.96875 2.562439 2.9375l8.640625 15.640625q0.375 0.671875 0.171875 1.03125q-0.203125 0.359375 -0.203125 -0.421875l0.875 0q0 0.734375 -0.203125 0.40625q-0.203125 -0.328125 0.171875 -1.0l8.546875 -15.65625q1.09375 -1.984375 2.5625 -2.953125q1.46875 -0.96875 3.609375 -0.96875l15.546875 0q2.65625 0 4.046875 1.40625q1.40625 1.40625 1.40625 4.0625l0 62.203125q0 2.65625 -1.40625 4.0625q-1.390625 1.390625 -4.046875 1.390625l-14.78125 0q-2.65625 0 -4.0625 -1.390625q-1.390625 -1.40625 -1.390625 -4.0625l0 -25.90625l-1.90625 3.515625q-1.125 2.125 -2.8125 3.125q-1.671875 1.0 -4.03125 1.0l-3.84375 0q-2.390625 0 -4.0625 -1.0q-1.65625 -1.0 -2.796875 -3.109375l-1.890625 -3.515625l0 25.890625q0 2.65625 -1.406189 4.0625q-1.40625 1.390625 -4.046875 1.390625zm111.73828 0l-44.546875 0q-2.65625 0 -4.0625 -1.390625q-1.390625 -1.40625 -1.390625 -4.0625l0 -62.203125q0 -2.65625 1.390625 -4.0625q1.40625 -1.40625 4.0625 -1.40625l44.546875 0q2.65625 0 4.046875 1.40625q1.40625 1.40625 1.40625 4.0625l0 11.21875q0 2.65625 -1.40625 4.0625q-1.390625 1.40625 -4.046875 1.40625l-24.5 0l0 3.390625l16.71875 0q2.65625 0 4.046875 1.40625q1.40625 1.390625 1.40625 4.046875l0 10.265625q0 2.65625 -1.40625 4.0625q-1.390625 1.390625 -4.046875 1.390625l-16.71875 0l0 4.265625l24.5 0q2.65625 0 4.046875 1.40625q1.40625 1.390625 1.40625 4.046875l0 11.234375q0 2.65625 -1.40625 4.0625q-1.390625 1.390625 -4.046875 1.390625zm50.596497 0l-32.359375 0q-2.65625 0 -4.0625 -1.390625q-1.390625 -1.40625 -1.390625 -4.0625l0 -62.203125q0 -2.65625 1.390625 -4.0625q1.40625 -1.40625 4.0625 -1.40625l32.359375 0q12.71875 0 19.15625 5.34375q6.453125 5.328125 6.453125 16.25l0 29.953125q0 10.921875 -6.453125 16.25q-6.4375 5.328125 -19.15625 5.328125zm-12.015625 -50.78125l0 28.640625l9.421875 0q1.4375 0 1.96875 -0.546875q0.546875 -0.5625 0.546875 -2.15625l0 -23.328125q0 -1.578125 -0.53125 -2.09375q-0.515625 -0.515625 -1.984375 -0.515625l-9.421875 0zm80.45972 50.78125l-15.546875 0q-2.65625 0 -4.0625 -1.390625q-1.40625 -1.40625 -1.40625 -4.0625l0 -45.140625l-12.109375 0q-2.65625 0 -4.0625 -1.390625q-1.390625 -1.40625 -1.390625 -4.0625l0 -11.609375q0 -2.65625 1.390625 -4.0625q1.40625 -1.40625 4.0625 -1.40625l50.6875 0q2.65625 0 4.046875 1.40625q1.40625 1.40625 1.40625 4.0625l0 11.609375q0 2.65625 -1.40625 4.0625q-1.390625 1.390625 -4.046875 1.390625l-12.109375 0l0 45.140625q0 2.65625 -1.40625 4.0625q-1.390625 1.390625 -4.046875 1.390625zm54.022827 -51.84375l0 8.296875l5.203125 0q1.4375 0 1.828125 -0.59375q0.40625 -0.609375 0.40625 -1.921875l0 -3.265625q0 -1.3125 -0.40625 -1.90625q-0.390625 -0.609375 -1.828125 -0.609375l-5.203125 0zm-5.453125 51.84375l-14.78125 0q-2.65625 0 -4.0625 -1.390625q-1.390625 -1.40625 -1.390625 -4.0625l0 -62.203125q0 -2.65625 1.390625 -4.0625q1.40625 -1.40625 4.0625 -1.40625l31.96875 0q11.625 0 16.265625 5.078125q4.640625 5.078125 4.640625 12.953125l0 4.421875q0 4.4375 -1.4375 7.84375q-1.421875 3.390625 -2.625 2.625q2.859375 -0.859375 6.578125 3.375q3.734375 4.21875 3.734375 11.015625l0 20.359375q0 2.65625 -1.40625 4.0625q-1.40625 1.390625 -4.046875 1.390625l-14.890625 0q-2.640625 0 -4.046875 -1.390625q-1.40625 -1.40625 -1.40625 -4.0625l0 -14.6875q0 -1.40625 -0.296875 -1.765625q-0.28125 -0.359375 -1.34375 -0.359375l-11.453125 0l0 16.8125q0 2.65625 -1.40625 4.0625q-1.390625 1.390625 -4.046875 1.390625zm80.03113 -50.265625l-3.671875 11.890625l9.640625 0l-3.671875 -11.875q-0.171875 -0.375 -0.0625 -0.59375q0.109375 -0.234375 0.109375 0.25l-2.40625 0q0 -0.484375 0.109375 -0.25q0.109375 0.21875 -0.046875 0.578125zm-5.359375 44.8125q0 2.65625 -1.40625 4.0625q-1.390625 1.390625 -4.046875 1.390625l-14.109375 0q-2.65625 0 -4.0625 -1.390625q-1.390625 -1.40625 -1.390625 -4.0625l0 -25.34375q0 -3.125 0.953125 -7.046875q0.96875 -3.921875 2.90625 -9.03125l8.359375 -21.765625q0.796875 -2.25 2.515625 -3.359375q1.734375 -1.125 4.25 -1.125l25.828125 0q2.421875 0 4.140625 1.125q1.734375 1.109375 2.53125 3.359375l8.34375 21.765625q1.96875 5.109375 2.921875 9.03125q0.953125 3.921875 0.953125 7.046875l0 25.34375q0 2.65625 -1.40625 4.0625q-1.390625 1.390625 -4.046875 1.390625l-14.5 0q-2.671875 0 -4.203125 -1.359375q-1.53125 -1.375 -1.53125 -4.09375l0 -11.4375l-13.0 0l0 11.4375zm94.486206 5.453125l-23.421875 0q-12.71875 0 -19.171875 -5.328125q-6.453125 -5.328125 -6.453125 -16.25l0 -29.859375q0 -10.921875 6.453125 -16.296875q6.453125 -5.390625 19.171875 -5.390625l23.421875 0q2.65625 0 4.046875 1.40625q1.40625 1.40625 1.40625 4.0625l0 11.609375q0 2.65625 -1.40625 4.0625q-1.390625 1.390625 -4.046875 1.390625l-19.296875 0q-2.25 0 -3.0625 0.671875q-0.796875 0.671875 -0.796875 2.125l0 22.859375q0 1.40625 0.78125 2.0q0.78125 0.59375 3.078125 0.59375l19.296875 0q2.65625 0 4.046875 1.40625q1.40625 1.40625 1.40625 4.0625l0 11.421875q0 2.65625 -1.40625 4.0625q-1.390625 1.390625 -4.046875 1.390625zm32.631714 0l-14.875 0q-2.65625 0 -4.0625 -1.390625q-1.390625 -1.40625 -1.390625 -4.0625l0 -62.203125q0 -2.65625 1.390625 -4.0625q1.40625 -1.40625 4.0625 -1.40625l14.875 0q2.65625 0 4.0625 1.40625q1.40625 1.40625 1.40625 4.0625l0 20.078125l0.53125 0l9.34375 -21.140625q0.890625 -2.3125 2.5625 -3.359375q1.6875 -1.046875 4.078125 -1.046875l14.796875 0q2.65625 0 3.859375 1.703125q1.203125 1.703125 0.078125 4.265625l-8.640625 19.734375q3.3125 0.171875 7.0625 4.265625q3.765625 4.09375 3.765625 10.625l0 27.078125q0 2.65625 -1.40625 4.0625q-1.40625 1.390625 -4.046875 1.390625l-14.796875 0q-2.640625 0 -4.046875 -1.390625q-1.40625 -1.40625 -1.40625 -4.0625l0 -18.71875q0 -0.78125 -0.21875 -1.015625q-0.203125 -0.25 -0.84375 -0.25l-10.671875 0l0 19.984375q0 2.65625 -1.40625 4.0625q-1.40625 1.390625 -4.0625 1.390625zm101.28784 0l-44.546875 0q-2.65625 0 -4.0625 -1.390625q-1.390625 -1.40625 -1.390625 -4.0625l0 -62.203125q0 -2.65625 1.390625 -4.0625q1.40625 -1.40625 4.0625 -1.40625l44.546875 0q2.65625 0 4.046875 1.40625q1.40625 1.40625 1.40625 4.0625l0 11.21875q0 2.65625 -1.40625 4.0625q-1.390625 1.40625 -4.046875 1.40625l-24.5 0l0 3.390625l16.71875 0q2.65625 0 4.046875 1.40625q1.40625 1.390625 1.40625 4.046875l0 10.265625q0 2.65625 -1.40625 4.0625q-1.390625 1.390625 -4.046875 1.390625l-16.71875 0l0 4.265625l24.5 0q2.65625 0 4.046875 1.40625q1.40625 1.390625 1.40625 4.046875l0 11.234375q0 2.65625 -1.40625 4.0625q-1.390625 1.390625 -4.046875 1.390625zm38.471436 -51.84375l0 8.296875l5.203125 0q1.4375 0 1.828125 -0.59375q0.40625 -0.609375 0.40625 -1.921875l0 -3.265625q0 -1.3125 -0.40625 -1.90625q-0.390625 -0.609375 -1.828125 -0.609375l-5.203125 0zm-5.453125 51.84375l-14.78125 0q-2.65625 0 -4.0625 -1.390625q-1.390625 -1.40625 -1.390625 -4.0625l0 -62.203125q0 -2.65625 1.390625 -4.0625q1.40625 -1.40625 4.0625 -1.40625l31.96875 0q11.625 0 16.265625 5.078125q4.640625 5.078125 4.640625 12.953125l0 4.421875q0 4.4375 -1.4375 7.84375q-1.421875 3.390625 -2.625 2.625q2.859375 -0.859375 6.578125 3.375q3.734375 4.21875 3.734375 11.015625l0 20.359375q0 2.65625 -1.40625 4.0625q-1.40625 1.390625 -4.046875 1.390625l-14.890625 0q-2.640625 0 -4.046875 -1.390625q-1.40625 -1.40625 -1.40625 -4.0625l0 -14.6875q0 -1.40625 -0.296875 -1.765625q-0.28125 -0.359375 -1.34375 -0.359375l-11.453125 0l0 16.8125q0 2.65625 -1.40625 4.0625q-1.390625 1.390625 -4.046875 1.390625z" fill-rule="nonzero"></path><defs><radialGradient id="p.4" gradientUnits="userSpaceOnUse" gradientTransform="matrix(0.0 -11.187675496064827 11.187675496064827 0.0 0.0 0.0)" spreadMethod="pad" cx="-11.935237047417521" cy="14.564794472545865" fx="-11.935237047417521" fy="14.564794472545865" r="11.187675476074219"><stop offset="0.0" stop-color="#4e29aa"></stop><stop offset="1.0" stop-color="#1e123d"></stop></radialGradient></defs><path fill="url(#p.4)" d="m41.182415 162.50394l0 -57.95276l243.52754 0l0 57.95276z" fill-rule="evenodd"></path><path stroke="#999999" stroke-width="12.0" stroke-linejoin="round" stroke-linecap="butt" d="m41.182415 162.50394l0 -57.95276l243.52754 0l0 57.95276z" fill-rule="evenodd"></path><defs><radialGradient id="p.5" gradientUnits="userSpaceOnUse" gradientTransform="matrix(0.0 10.925304411904602 -10.925304411904602 0.0 0.0 0.0)" spreadMethod="pad" cx="12.120961746942125" cy="-14.916009304019823" fx="12.120961746942125" fy="-14.916009304019823" r="10.925304412841797"><stop offset="0.0" stop-color="#dddddd"></stop><stop offset="1.0" stop-color="#919191"></stop></radialGradient></defs><path fill="url(#p.5)" d="m279.2139 105.35433l0 54.14173l-232.50392 0l0 -54.14173z" fill-rule="evenodd"></path><defs><radialGradient id="p.6" gradientUnits="userSpaceOnUse" gradientTransform="matrix(10.51122453024994 0.0 0.0 10.51122453024994 0.0 0.0)" spreadMethod="pad" cx="15.440437010492438" cy="12.182202786924899" fx="15.440437010492438" fy="12.182202786924899" r="10.511224746704102"><stop offset="0.0" stop-color="#dddddd"></stop><stop offset="1.0" stop-color="#919191"></stop></radialGradient></defs><path fill="url(#p.6)" d="m135.22704 20.931759l54.141724 0l0 214.23622l-54.141724 0z" fill-rule="evenodd"></path><path fill="#880e4f" d="m97.84646 169.26491l0 0c0 -1.9756622 1.6015854 -3.57724 3.57724 -3.57724l21.34945 0c0.9487457 0 1.858635 0.37687683 2.5294952 1.0477448c0.6708603 0.6708679 1.0477524 1.5807495 1.0477524 2.5294952l0 73.19197c0 1.9756622 -1.6015854 3.57724 -3.5772476 3.57724l-21.34945 0l0 0c-1.9756546 0 -3.57724 -1.6015778 -3.57724 -3.57724z" fill-rule="evenodd"></path><path stroke="#880e4f" stroke-width="1.0" stroke-linejoin="round" stroke-linecap="butt" d="m97.84646 169.26491l0 0c0 -1.9756622 1.6015854 -3.57724 3.57724 -3.57724l21.34945 0c0.9487457 0 1.858635 0.37687683 2.5294952 1.0477448c0.6708603 0.6708679 1.0477524 1.5807495 1.0477524 2.5294952l0 73.19197c0 1.9756622 -1.6015854 3.57724 -3.5772476 3.57724l-21.34945 0l0 0c-1.9756546 0 -3.57724 -1.6015778 -3.57724 -3.57724z" fill-rule="evenodd"></path><path fill="#880e4f" d="m197.77821 169.40144l0 0c0 -2.0510712 1.6627197 -3.7137756 3.7137756 -3.7137756l21.076385 0c0.98495483 0 1.9295654 0.39126587 2.6260376 1.087738c0.69647217 0.69647217 1.087738 1.6410828 1.087738 2.6260376l0 72.41496c0 2.051056 -1.6627197 3.7137756 -3.7137756 3.7137756l-21.076385 0l0 0c-2.051056 0 -3.7137756 -1.6627197 -3.7137756 -3.7137756z" fill-rule="evenodd"></path></g></svg>

